<?xml version="1.0" encoding="utf-8"?>
<!-- Generator: Adobe Illustrator 23.0.1, SVG Export Plug-In . SVG Version: 6.00 Build 0)  -->
<svg version="1.1" id="Layer_1" xmlns="http://www.w3.org/2000/svg" xmlns:xlink="http://www.w3.org/1999/xlink" x="0px" y="0px"
	 width="1000px" height="1000px" viewBox="0 0 1000 1000" style="enable-background:new 0 0 1000 1000;" xml:space="preserve">
<g>
	<path d="M62.2,688.4h69.4c0.5,2.8,1.4,5.5,3.7,7c4.5,2.7,9.7-2,12.1-7h10.8c-1.1,4.4-2.4,8.8-3.2,13.4c-1.2,7.5-1.1,15.2,0.4,22.6
		c0.5,2.1,1,4.2,2.5,5.7c3.5,3.8,10.2,2.2,13.2-1.9c3.1-4.1,3.6-9.4,4.1-14.5c0.3-4,0.7-7.9,0.9-11.9c3.1,4.6,6.1,9.3,9.2,13.9
		c-6.2,11.9-9.2,25.3-8.7,38.7c0.3,6.5,1.4,13.4,5.9,17.8c4.5,4.5,13.2,5.3,16.9,0.1c1.3-1.9,1.9-4.2,2.2-6.6
		c1.1-7.4,0.9-15.1-0.9-22.4c6.4,1.4,10.5,8,11.5,14.4s-0.3,13-0.7,19.5c-0.5,9.4,0.8,18.8,3.9,27.6c1.3,3.6,3,7.2,6.1,9.5
		c3.1,2.2,7.9,2.6,10.5-0.2c1.5-1.6,1.9-4,2.3-6.2c1.2-8.3,1-16.8-0.3-25c7.4,3,10.6,11.5,11.8,19.4s1.6,16.2,6.1,22.6
		c3.2,4.4,9.6,7.5,13.8,4.1s2.8-9.9,1-15c3.9,1.4,5.6,5.9,7.6,9.5c3.6,6.5,9,12.1,15.6,15.5c4.1,2.2,8.9,3.6,13.4,2.3
		c0.1,0,0.1-0.1,0.2-0.1c0.7,4.1,2.5,8.2,4.3,11.9c2.6,5.1,5.3,12.9,12.4,11.6c4.6-0.8,8-5.2,8.7-9.8c0.6-4.6-1-9.3-3.7-13.2
		c2.6,0.5,5.4,1,8.1,1.6c1.6,12.6,8.5,24.6,18.8,32.2c4,3,9.6,5.3,13.8,2.8c3.6-2.2,4.5-7.1,3.5-11.1c-1.2-4.1-3.9-7.3-6.7-10.5
		c4.6-1.5,9.7,0.9,13.1,4.4c3.3,3.5,5.3,8,7.6,12.2c6.7,12.3,16.9,22.6,29,29.4c2.5,1.5,5.3,2.6,8,1.8c5.3-1.8,4.6-9.7,1.9-14.7
		c-4.3-8.1-10.5-15.1-18-20.4c8.3-2.2,16.9,2.1,22.8,8.3c6.1,6.1,10.2,13.6,15.7,20.1c5,5.8,10.9,10.6,17.5,14.2
		c1.9,1,3.9,1.9,6,1.8c5.1-0.2,8.2-6.4,7-11.4s-4.9-8.8-8.5-12.4c-2.8-2.8-5.6-5.6-8.5-8.3c5.5,0.6,11,1.3,16.5,1.9
		c5.1,12.4,13.5,23.3,24,31.6c5.1,4,11.1,7.5,17.5,6.9c6.3-0.6,12.6-6.7,11-12.9c-0.6-2.2-2.1-4.2-3.7-5.9c-5-5.6-11-10.4-17.8-13.8
		c5.2-4,12.9-2.9,18.4,0.4c5.6,3.3,9.8,8.6,14.5,13.1c6.9,6.5,14.9,11.5,23.7,14.7c3.6,1.3,7.5,2.3,11.2,1.4
		c3.7-0.9,7.1-4.3,6.6-8.2c-0.3-2.2-1.8-4-3.3-5.8c-5.6-6.2-12.2-11.6-19.4-15.8c7.1-3.8,15.6-0.7,22.4,3.4
		c6.8,4.1,13.4,9.2,21.3,9.9c5.4,0.4,11.9-2.5,12-7.9s-5.8-8.5-10.9-10.4c3.6-2,8.1-0.5,12.1,0.3c7.3,1.4,15.1,0.8,22-2
		c4.3-1.7,8.5-4.5,10.4-8.8c0-0.1,0.1-0.1,0.1-0.2c3.6,2.1,7.9,3.4,11.9,4.4c5.5,1.3,13.3,4.2,16.9-2c2.4-4,1.2-9.5-1.9-12.9
		c-3.1-3.4-7.8-5.2-12.4-5.6c2.1-1.7,4.3-3.5,6.5-5.2c10.7,6.9,24.3,9.3,36.8,6.3c4.9-1.1,10.2-3.9,11-8.8c0.7-4.2-2.5-8-6.3-9.8
		c-3.9-1.7-8.1-1.7-12.4-1.7c1.8-4.5,6.9-6.9,11.8-7.2c4.8-0.3,9.5,1.1,14.3,2c13.7,2.8,28.1,1.6,41.2-3.3c2.7-0.9,5.4-2.4,6.5-4.9
		c2.1-5.2-4.5-9.8-10.1-11c-8.9-1.9-18.4-1.7-27.2,0.6c3.6-7.8,12.5-11.5,21-12.2s17,0.9,25.5,0.9c7.6-0.1,15.1-1.5,22.2-4.3
		c2-0.8,4-1.7,5.2-3.5c3.1-4.1,0.4-10.4-4.2-12.7c-4.6-2.3-9.9-1.9-15-1.5c-4,0.4-7.9,0.7-11.9,1.2c4-3.8,8.1-7.6,12.1-11.4
		c12.8,4,26.5,4.6,39.6,1.9c6.3-1.4,12.9-3.7,16.5-9c3.6-5.2,3-13.9-2.8-16.7c-2.1-1-4.5-1.1-6.9-1c-7.5,0.2-15,1.7-22,4.8
		c0.3-6.6,6.1-11.7,12.2-13.8s12.8-2,19.3-2.7c9.4-1.1,18.4-4,26.5-8.7c3.3-1.9,6.6-4.2,8.3-7.6s1.2-8.2-2-10.3
		c-1.8-1.2-4.3-1.2-6.5-1.2c-8.4,0.3-16.7,1.9-24.6,4.7c1.7-7.8,9.5-12.4,17-15c6.6-2.3,13.7-3.9,19-8h63.7v-18.2H62.2V688.4z
		 M809.9,740.9c1.2-5.9,2.3-12.2,0.5-18s-7.7-10.8-13.6-9.3c-2.3,0.5-4.2,2-5.8,3.5c-7.2,6.6-10.7,16.8-9.1,26.4
		c1,5.9,1.4,8.4,1.4,14.5s-5.4,14.5-8.3,14.9c2.1-5.2,4-10.8,3-16.4c-1-5.6-5.8-10.8-11.3-10.4c-3.2,0.3-6.2,2.3-8.2,4.7
		c-6.4,7.4-6.5,18.1-7.7,27.9c-1.2,9.7-4.9,20.8-14,24c2-4.6,4.1-9.7,3.6-14.7s-4.8-10.1-9.8-9.8c-2.4,0.2-4.6,1.6-6.5,3.2
		c-5.7,4.5-9.9,11.2-11.7,18.4c-2.4,9.5-1.8,21.6-10.4,26.4c2.6-6,3.5-12.8,2.6-19.4c-0.5-3.4-2-7.3-5.4-8.4
		c-3.8-1.2-10.9,3.5-13.6,6.6c-5.5,6.8-6.6,10.9-10.2,18.8c-3,6.6-7.7,19.7-7.7,19.7s-5.4,5.3-9.5,7.5c2.5-4.2,8.1-13,8.7-17.8
		c0.5-4.8,0.7-9.9-3.8-12c-0.4-0.2-0.7-0.3-1-0.5c-6.1-2.2-12.9,2.7-16.7,8.2c-5,7.1-8.3,15.5-9.2,24.1c-0.2,1.9-0.3,3.9-0.2,5.8
		c-9.1-1.7-19.4,2.6-25.3,9.5c-3.4,4.1-7.1,10.8-12,8.5c2.1-3.1,4.3-6.3,5-10c0.8-3.7-0.5-8-3.7-9.8c-1.5-0.9-3.3-1.1-5.1-1
		c-8.4,0.6-13.7,9-18.4,16.1c-4.6,7-12.4,14.4-20.4,11.4c2.4-4.6,6.8-7.8,10-11.9c3.1-4.2,4.6-10.6,0.8-14.3
		c-1.9-1.8-4.6-2.4-7.2-2.5c-16.5-1.2-32.9,12.1-35.2,28.6c-4.4,0.5-9,0.2-13.3-1.1c5.3-2.9,10.8-6.1,14.1-11.1
		c3.3-5.1,3.3-12.8-1.6-16.4c-1.9-1.4-4.2-1.9-6.4-2.2c-9.7-1.3-19.8,2.6-26.1,10c-3.9,4.6-5.5,6.4-10.2,10.3s-14.6,5.2-16.8,3.2
		c5.4-1.7,10.8-3.9,14.5-8.2s4.6-11.4,0.7-15.4c-2.3-2.3-5.7-3.2-8.9-3.3c-9.8-0.1-18.1,6.7-26.3,12c-8.2,5.3-19.1,9.7-27.4,4.7
		c4.9-1.4,10.1-3.1,13.6-6.7c3.5-3.6,4.7-10.2,1.2-13.8c-1.7-1.7-4.2-2.5-6.6-2.9c-7.2-1.5-15-0.4-21.7,2.9
		c-8.8,4.3-17.7,12.5-26.9,9c6.3-1.8,12-5.5,16.5-10.4c2.3-2.6,4.3-6.2,3-9.6c-1.5-3.7-9.7-6.2-13.8-6.2c-8.7,0.2-12.6,2-21,4.3
		c-6.9,2-20.1,6.8-20.1,6.8s-7.5-0.8-11.9-2.4c4.8-0.7,15.2-2.1,19.2-4.7c4-2.7,8-5.9,6.8-10.6c-0.1-0.5-0.2-0.7-0.3-1.1
		c-2.2-6.1-10.4-8.1-17-7.6c-8.6,0.7-17.2,3.6-24.4,8.4c-1.6,1.1-3.1,2.2-4.5,3.6c-4.5-8.1-14.5-13.2-23.5-13.3
		c-5.4,0-12.9,1.5-14.3-3.7c3.7-0.4,7.6-0.7,10.8-2.6c3.3-1.8,5.8-5.5,5.2-9.1c-0.2-1.8-1.3-3.2-2.4-4.5c-5.9-6-15.7-4.7-24.1-3.7
		c-8.3,1-19-0.3-21.8-8.3c5-1.1,10.4,0.2,15.5,0c5.2-0.3,11.1-3.3,11.5-8.5c0.1-2.6-1.1-5-2.7-7.2c-9.7-13.4-30.5-17.4-44.5-8.6
		c-3.2-3.1-5.9-6.8-7.7-10.9c5.6,2.3,11.6,4.4,17.6,3.7s11.9-5.7,11.6-11.8c-0.1-2.3-1.2-4.5-2.4-6.4c-5.3-8.3-14.7-13.5-24.4-13.6
		c-6,0-8.5-0.1-14.5-1.2c-6-1.1-13.3-7.9-13.2-10.8c4.7,3,10,5.8,15.6,5.8c5.7,0,11.7-3.8,12.3-9.3c0.3-3.2-1.2-6.5-3.2-8.9
		c-1-1.2-2.1-2.3-3.4-3.3h113.5c0.7,12.7,4,39.6,5,53.9c1.5,20,9.7,56.7,26.9,55.1c17.2-1.5,18.9-39.1,16.9-59.1
		c-1.5-14.2-6.4-37.6-8.3-50H441l3.5,95.1c0.3,8.8,7.2,15.9,15.6,15.6h0.1c8.4-0.3,15.4-8,15.1-16.8l-3.4-93.9h76.3
		c-0.2,3.4-0.5,6.6-0.7,9.7c-0.9,12.1-2.4,28-3,43.4c-0.8,20.3,3.3,58.1,20.8,58.5s23.4-37.2,23.6-57.5c0.1-15.5-0.8-31.4-1-43.5
		c-0.1-3.4-0.2-7-0.2-10.6H653c-0.8,6.6-1.6,13-2.3,18.8c-1.3,10.9-3.4,25-4.6,38.8c-1.6,18.2,0.4,52.2,16.2,53.4
		C678,800.7,685,767.3,686,749c0.6-13.9,0.6-28.1,0.9-39.1c0.2-6.6,0.3-13.9,0.5-21.4h131.1c-9.6,12.2-9.2,31.5,1.2,43.1
		C816.8,735.2,813.6,738.5,809.9,740.9z M351,786c-5.3,0.5-10-3.7-10.6-9.3c-0.5-5.5,3.4-10.5,8.7-11c5.4-0.5,10,3.7,10.6,9.3
		C360.2,780.7,356.3,785.6,351,786z M467.7,778.1c0.2,5.1-3.5,9.3-8.3,9.5s-8.9-3.8-9-8.8c-0.2-5.1,3.5-9.3,8.3-9.5
		C463.5,769.2,467.6,773.1,467.7,778.1z M575.2,778.4c-0.2,5.7-4.7,10.2-10,10c-5.4-0.2-9.7-4.8-9.5-10.5s4.6-10.1,10-10
		C571.1,767.9,575.3,772.7,575.2,778.4z M671.9,780.6c-0.4,5-4.6,8.8-9.4,8.5c-4.8-0.4-8.4-4.7-8.1-9.8c0.4-5.1,4.6-8.9,9.4-8.5
		C668.6,771.2,672.2,775.5,671.9,780.6z M839.8,707.3c-2-4.8-1.6-10.2-2.7-15.3c-0.3-1.2-0.8-2.4-1.3-3.6h9.4
		C846.5,695.6,845.9,703.7,839.8,707.3z"/>
	<path d="M921.6,457.4c0-2.4-0.7-4.8-2.6-6.2c-2.8-2.1-7-1.5-9.9,0.4c-2.3,1.5-3.9,3.6-5.3,5.8h-3.1c-0.8-3.3-0.1-6.9,1.4-10
		c2.2-4.3,5.7-7.7,8.9-11.4c9.3-10.5,15.4-23.6,17.8-37.3c0.5-2.8,0.6-5.9-1-8.1c-3.5-4.4-10.7-1-14.5,3.2
		c-6.1,6.8-10.6,15.1-13.1,23.9c-4.9-7-3.8-16.6-0.1-24.3c3.6-7.8,9.3-14.2,13.6-21.7c3.7-6.6,6.3-13.9,7.4-21.3
		c0.3-2.1,0.5-4.3-0.4-6.3c-2-4.7-8.8-5.5-13.1-2.7s-6.6,7.6-8.8,12.2c-1.7,3.6-3.4,7.2-4.9,10.8c-1.3-5.4-2.6-10.8-3.9-16.1
		c9.8-9.1,17.3-20.6,21.4-33.4c2-6.2,3.2-13,0.5-18.8s-10.6-9.5-15.9-5.9c-1.9,1.3-3.2,3.4-4.3,5.5c-3.5,6.6-6,13.9-6.9,21.4
		c-5.5-3.5-7.1-11.1-5.9-17.5c1.2-6.4,4.7-12.1,7.3-18.1c3.7-8.7,5.7-18,5.7-27.3c0-3.8-0.4-7.8-2.5-11s-6.5-5.1-9.9-3.4
		c-1.9,1-3.2,3.1-4.3,5.1c-3.9,7.4-6.7,15.4-8.3,23.6c-6-5.4-6-14.4-4.4-22.2c1.5-7.8,4.1-15.8,2-23.4c-1.5-5.2-6.5-10.3-11.5-8.5
		c-5.1,1.8-6,8.4-6.1,13.8c-3.1-2.7-3.3-7.5-3.9-11.5c-1.1-7.3-4.4-14.4-9.4-20c-3.1-3.4-7.1-6.4-11.8-6.8c-0.1,0-0.2,0-0.2,0
		c0.8-4.1,0.5-8.6,0.1-12.7c-0.7-5.6-0.6-13.9-7.7-15.2c-4.6-0.9-9.3,2.1-11.5,6.2c-2.2,4.1-2.2,9.1-1.1,13.6
		c-2.3-1.4-4.8-2.8-7.1-4.3c2.8-12.4,0.4-26-6.6-36.7c-2.7-4.2-7.2-8.3-12-7.3c-4.2,0.8-6.7,5.1-7.1,9.2c-0.3,4.2,1.2,8.2,2.6,12.2
		c-4.9-0.1-8.8-4.1-10.8-8.6c-1.9-4.4-2.2-9.3-3-14.1c-2.1-13.8-8.1-27-17.1-37.6c-1.8-2.2-4.1-4.3-6.9-4.4
		c-5.6-0.1-7.6,7.6-6.9,13.2c1.3,9,4.7,17.8,9.9,25.3c-8.6-0.7-15.1-7.8-18.6-15.6c-3.6-7.8-4.9-16.3-7.9-24.3
		c-2.7-7.1-6.6-13.7-11.6-19.4c-1.5-1.6-3-3.2-5-3.7c-4.9-1.5-9.9,3.2-10.5,8.3c-0.6,5.1,1.6,10,3.7,14.6c1.7,3.6,3.3,7.2,5.1,10.7
		c-5-2.4-9.9-5-14.9-7.4c-0.6-13.4-4.7-26.5-11.8-37.9c-3.4-5.5-7.9-10.9-14.1-12.5c-6.2-1.6-14.1,2-14.7,8.3
		c-0.2,2.3,0.5,4.6,1.4,6.8c2.8,6.9,6.8,13.5,12,19c-6.3,2-13.1-1.7-17.2-6.7c-4.1-5-6.2-11.4-9.1-17.2
		c-4.2-8.4-10.1-15.9-17.2-21.9c-2.9-2.4-6.2-4.8-10-5.2c-3.8-0.4-8.1,1.7-9,5.4c-0.5,2.1,0.3,4.4,1.1,6.6
		c3.1,7.8,7.5,15.1,12.8,21.5C593,59.2,586,53.4,581,47.2s-9.5-13.3-16.6-16.6c-5-2.3-12.1-1.7-13.9,3.4c-1.9,5,2.6,10,6.7,13.5
		c-4.1,0.7-7.8-2.3-11.3-4.4c-6.3-3.8-13.9-5.9-21.3-5.6c-4.6,0.1-9.5,1.3-12.8,4.7c-0.1,0.1-0.1,0.1-0.2,0.2
		c-2.7-3.2-6.2-5.9-9.7-8.2c-4.7-3.1-11-8.5-16.6-3.9c-3.6,3-4.4,8.5-2.6,12.8s5.6,7.5,9.8,9.6c-2.5,0.9-5.2,1.8-7.8,2.6
		c-7.7-10.1-19.6-17-32.4-18.5c-4.9-0.6-11,0.2-13.3,4.5c-2.1,3.7-0.4,8.4,2.5,11.4c3,3,7.1,4.4,11,5.8c-3.2,3.7-8.8,4.1-13.5,2.7
		c-4.6-1.4-8.6-4.3-12.7-6.8c-11.9-7.3-25.9-11.1-39.8-11c-2.9,0-5.9,0.4-7.8,2.4c-3.7,4.2,0.9,10.7,5.7,13.7
		c7.8,4.8,16.7,7.9,25.8,8.7c-6.1,6.1-15.7,6.6-23.9,4.3c-8.3-2.2-15.6-6.7-23.7-9.6c-7.2-2.5-14.7-3.8-22.3-3.6
		c-2.1,0.1-4.4,0.3-6.1,1.5c-4.3,2.8-3.9,9.6-0.4,13.4c3.5,3.7,8.6,5.2,13.6,6.5c3.9,1,7.7,2.1,11.5,3c-5.1,2.2-10.2,4.4-15.2,6.6
		c-10.6-8.1-23.3-13.4-36.6-15.3c-6.4-0.9-13.4-0.9-18.6,2.8c-5.2,3.7-7.6,12.1-3.1,16.6c1.6,1.6,3.9,2.6,6.1,3.3
		c7.1,2.3,14.7,3.5,22.3,3c-2.5,6.1-9.7,8.9-16.2,8.8s-12.7-2.5-19.1-4.1c-9.2-2.2-18.7-2.5-27.8-0.9c-3.7,0.7-7.6,1.7-10.4,4.3
		c-2.7,2.6-3.9,7.3-1.6,10.4c1.3,1.7,3.6,2.6,5.7,3.3c8,2.6,16.4,4,24.7,4c-4.2,6.8-13.1,8.4-21.1,8.2s-16.2-1.3-23.4,2.1
		c-4.9,2.3-9,8.2-6.4,12.8c2.7,4.7,9.3,4.4,14.7,3.6c-2.1,3.6-6.8,4.5-10.7,5.8c-7,2.4-13.5,6.8-18,12.7c-2.9,3.6-5.1,8.1-4.6,12.8
		c0,0.1,0,0.2,0,0.2c-4.2,0-8.5,1-12.5,2.1c-5.4,1.6-13.6,3-13.6,10.2c-0.1,4.7,3.7,8.8,8.1,10.2c4.4,1.4,9.3,0.6,13.6-1.3
		c-1,2.5-1.9,5.2-3,7.7c-12.7-0.6-25.7,4.1-35,12.9c-3.6,3.4-6.9,8.5-5.1,13.1c1.5,4,6.2,5.7,10.3,5.4c4.2-0.4,7.9-2.6,11.5-4.7
		c0.7,4.8-2.5,9.4-6.6,12.1c-4,2.6-8.8,3.8-13.4,5.4c-13.3,4.4-25.2,12.7-34,23.4c-1.9,2.2-3.5,4.8-3.1,7.5
		c0.8,5.6,8.8,6.2,14.2,4.5c8.7-2.8,16.7-7.7,23.2-14.1c0.8,8.6-5,16.3-12.1,21.1c-7,4.9-15.2,7.7-22.6,12
		c-6.5,3.9-12.3,8.9-17.1,14.8c-1.3,1.7-2.6,3.5-2.8,5.6c-0.7,5.1,4.9,9.2,10,8.9c5.1-0.3,9.5-3.3,13.7-6.2c3.3-2.3,6.5-4.5,9.7-6.9
		c-1.5,5.3-3.2,10.6-4.7,15.9c-13.1,2.9-25.3,9.2-35.3,18.2c-4.8,4.3-9.3,9.7-9.8,16s4.4,13.6,10.8,13.1c2.3-0.2,4.5-1.3,6.5-2.6
		c6.3-4,12.1-9,16.6-15.1c3,5.8,0.6,13.2-3.6,18.1s-10.1,8.1-15.4,12c-7.6,5.6-14,12.7-18.6,20.7c-1.9,3.3-3.6,7-3.4,10.7
		c0.3,3.8,3.1,7.7,6.9,7.9c2.2,0.1,4.3-1.1,6.3-2.3c7.1-4.5,13.6-10,19-16.3c2.5,7.6-2,15.5-7.3,21.5c-3.1,3.5-6.4,6.9-9.1,10.6
		H62.2V475h881.5v-18.2h-22.1V457.4z M394.7,262.5c2.2,13.4,4.7,26.9,8.3,40c4.7,17.4,9.4,32.1,16,48.9c4.3,11,7.3,18.1,6.8,17.2
		c-0.4,0.2-13.9-23.8-16.6-30.2C397.4,311,387.6,284.1,384,254c-2.2-17.7,3.1-33.3,14.1-46.8c1.4-1.7,3.2-2.8,5.2-4.1
		C393.5,221.9,391.2,241.8,394.7,262.5z M425.1,353.8c-11.6-31.6-21-64-24.9-97.8c-2.2-19.1,0.3-37.5,12-53.2
		c3.3-4.3,7.9-7.4,12.6-10.1c-2.7,8.7-5.7,17.4-7.9,26.2c-5.4,21.9-2.5,43.9,1.2,65.5c4.9,29.1,11,58,16.5,86.9
		c0.2,1,0.3,1.9,0.5,2.9c-0.3,0.2-0.6,0.3-0.9,0.5C431.2,367.7,427.8,361,425.1,353.8z M439.9,366.8c-8.6-38.4-16.5-76.9-19.3-116.2
		c-1.4-19.5,2-38.1,11.3-55.4c0.5-0.9,1.1-1.7,1.7-2.5c0.2-0.2,0.7-0.3,0.2-0.1c2.4,58.5,4.8,117.3,7.2,176.2
		C440.7,368.2,440.1,367.5,439.9,366.8z M449.7,367.5c-2.3-57.1-4.7-116-7-175.9c2.5,3.8,4.7,6.7,6.4,10c7.9,16,12.2,33.1,11.9,51.2
		c-0.5,38.2-5.3,75.9-11,113.6C449.8,367.3,449.4,368.2,449.7,367.5z M463.6,309.9c1.7-17.4,2.6-34.9,3.4-52.4
		c1.1-23.6-4.6-45.6-16.5-66.6c11,3.7,17.2,11.8,22,21.2c7.2,14.5,9.9,30,8.7,46.2c-2.9,37.3-9.5,73.8-22.5,108.8
		c-0.6,1.6-1.5,3.1-2.8,5.8C458.6,351,461.5,330.5,463.6,309.9z M472.6,199.3c11.9,6.7,21.8,22.7,24.2,38.1
		c2.3,14.4,0.2,28.5-2.2,42.4c-5.6,31.7-14.2,62.3-27.7,88.2c4.7-20.5,10.6-43.6,15.3-67c2.8-13.5,4.1-27.3,5.2-41.1
		C489.1,238.1,484.4,217.8,472.6,199.3z M558.2,282.9c-0.1,3.8-3.1,6.9-6.7,6.7c-3.6-0.1-6.5-3.3-6.4-7l1.6-68.1
		c0.1-3.8,3.1-6.9,6.7-6.7c3.6,0.1,6.5,3.3,6.4,7L558.2,282.9z M582.5,283.5c-0.1,3.8-3.1,6.9-6.7,6.7c-3.6-0.1-6.5-3.3-6.4-7
		l1.6-68.1c0.1-3.8,3.1-6.9,6.7-6.7c3.6,0.1,6.5,3.3,6.4,7L582.5,283.5z M880,437.1c-3.2-1.3-7.3-2-10,0.5
		c-2.9,2.7-2.5,11.2-1.1,15.1c0.7,1.8,1.4,3.4,2.1,4.7H699.3c0.6-22,1.4-42,2-50.2c1.4-18.7,12.9-39.8,24.7-56.4l3.9-5.5
		c3.6-5.8,9.8-18.4,10.3-25.3l0.1-0.9c1-3.8,1.7-8.1,2.1-13.6c2.3-26.6,7.7-83.4,8.7-106c0.3-6.6-4-12.2-10-13.3
		c-20.5-3.7-63.1,10.4-79.7,23.9c-10.8,8.8-19.6,62.1-13.9,106.9c1.5,11.7,9,30,12.6,36.4c2.5,4.5,14.4,34.8,13.2,51.7
		c-0.6,8.5-2.9,29.5-5.6,52.2h-77.3c-0.7-31.5-1.3-63.8-1-75.4c0.5-20.8,12.1-44.9,24.4-64.1l4.1-6.4c3.7-6.7,10-21,10.1-28.6
		l1.8-78.3c0.2-11.5-8.4-21-19.4-21.2l-32-0.8l-32-0.8c-11-0.2-20.1,8.9-20.3,20.3l-1.8,78.3c-0.2,7.7,5.4,22.3,8.8,29.1l3.8,6.6
		c11.3,19.8,21.8,44.3,21.3,65.2c-0.3,11.6-2.4,44.3-4.6,76.1h-89.3l-2.2-58.4c-0.2-3.8-1.8-7.2-3.9-9.9
		c8.7-6.9,13.8-16.5,18.5-26.5c12.3-26.3,19.1-54.4,24.3-83c1.2-6.6,1.8-13.3,2.7-19.9c2.4-19.8-5.7-44.5-14.9-54.8
		c-12-13.6-29.3-21.4-40.1-22.5c-17.3-1.9-33.1,2.1-47,13.1c-0.8,0.6-9.9,9-13.5,14.9c-8.5,13.9-12.7,30.4-10.2,46.7
		c5.7,36.5,17.8,70.8,35,103.1c5.7,11,11.9,21.8,22,29c-2.5,3-3.8,6.8-3.6,11l2.2,57.2h-88.7c-4.8-35.4-10.3-77.8-11.6-91.2
		c-1.8-20.5,7-45.4,16.9-65.6l3.2-6.7c2.9-7,7.5-21.6,6.8-29.3l-1.3-14.9c-0.2-0.9-0.9-1.6-1.8-1.5l-6.1-68.2c-0.1-1.1-1-2.1-2-2.1
		c-1.2,0-2.1,1.1-2.1,2.3l6.1,68.3l-1.8,0.2l-6.1-68.2c-0.1-1.1-1-2.1-2-2.1c-1.2,0-2.1,1.1-2.1,2.3l6.1,68.3l-1.8,0.2L339,181
		c-0.1-1.1-1-2.1-2-2.1c-1.2,0-2.1,1.1-2.1,2.3l6.1,68.3l-1.8,0.2l-6.1-68.2c-0.1-1.1-1-2.1-2-2.1c-1.2,0-2.1,1.1-2.1,2.3l6.1,68.3
		l-1.8,0.2l-6.1-68.2c-0.1-1.1-1-2.1-2-2.1c-1.2,0-2.1,1.1-2.1,2.3l6.1,68.3l-1.8,0.2l-6.1-68.2c-0.1-1.1-1-2.1-2-2.1
		c-1.2,0-2.1,1.1-2.1,2.3l6.1,68.3l-1.8,0.2l-6.1-68.2c-0.1-1.1-1-2.1-2-2.1c-1.2,0-2.1,1.1-2.1,2.3l6.1,68.3l-1.8,0.2l-6.1-68.2
		c-0.1-1.1-1-2.1-2-2.1c-1.2,0-2.1,1.1-2.1,2.3l6.1,68.3l-1.8,0.2l-6.1-68.2c-0.1-1.1-1-2.1-2-2.1c-1.2,0-2.1,1.1-2.1,2.3l6.1,68.3
		l-1.8,0.2l-6.1-68.2c-0.1-1.1-1-2.1-2-2.1c-1.2,0-2.1,1.1-2.1,2.3l6.1,68.3l-1.8,0.2l-6-68.2c-0.1-1.1-1-2.1-2-2.1
		c-1.2,0-2.1,1.1-2.1,2.3l6.1,68.3l-1.8,0.2L286,185c-0.1-1.1-1.1-2.1-2.2-1.9c-1.1,0.1-1.9,1.1-1.8,2.3l6.1,68.3l-1.8,0.2
		l-6.1-68.2c-0.1-1.1-1-2.1-2-2.1c-1.2,0-2.1,1.1-2.1,2.3l6.1,68.3l-1.8,0.2l-6.1-68.2c-0.1-1.1-1-2.1-2-2.1c-1.2,0-2.1,1.1-2.1,2.3
		l6.1,68.3l-1.8,0.2l-6.1-68.2c-0.1-1.1-1-2.1-2-2.1c-1.2,0-2.1,1.1-2.1,2.3l6.1,68.3l-1.8,0.2l-6.1-68.2c-0.1-1.1-1-2.1-2-2.1
		c-1.2,0-2.1,1.1-2.1,2.3l6.1,68.3l-1.8,0.2l-6.1-68.2c-0.1-1.1-1-2.1-2-2.1c-1.2,0-2.1,1.1-2.1,2.3l6.1,68.3
		c-0.8,0.1-1.5,0.8-1.5,1.8l1.3,14.9c0.7,7.6,7.7,21.2,11.8,27.6l4.1,7c13.3,18.1,26.3,41.1,28.1,61.6c1.1,13.1,2.9,53.5,4.4,88.5
		H130.3c-2.4-3.1-5.4-5.9-8.2-8.5c-6.1-5.7-12-14.7-7.7-22.1c4.1,3.2,6.5,8.1,10,11.9c3.6,3.8,9.6,6.3,13.9,3.3
		c2.1-1.6,3.2-4.1,3.7-6.7c4-16.1-6.2-34.5-22-39.7c0.3-4.4,1.4-8.9,3.4-12.9c1.9,5.8,4.1,11.7,8.5,15.9c4.4,4.1,12,5.5,16.5,1.3
		c1.7-1.6,2.6-3.8,3.3-6c2.9-9.4,0.9-19.9-5.3-27.4c-3.8-4.6-5.4-6.6-8.4-11.9s-2.5-15.3-0.2-17.1c0.7,5.6,2,11.3,5.6,15.7
		c3.6,4.3,10.4,6.5,15,3.4c2.7-1.8,4.2-5.1,4.8-8.2c1.9-9.6-3.4-18.9-7.3-28c-3.8-9-6.2-20.4,0.1-27.8c0.6,5,1.3,10.4,4.2,14.5
		s9.2,6.4,13.4,3.6c2-1.4,3.2-3.7,4-6c2.7-6.8,3-14.7,0.9-21.8c-2.7-9.5-9.2-19.6-4.2-28.1c0.7,6.5,3.3,12.8,7.4,18.1
		c2.1,2.7,5.4,5.4,8.9,4.6c3.9-0.8,7.7-8.5,8.5-12.5c1.4-8.6,0.2-12.7-0.6-21.4c-0.7-7.2-3.2-20.9-3.2-20.9s2.1-7.3,4.5-11.3
		c-0.1,4.9-0.5,15.3,1.3,19.8c2,4.4,4.4,8.9,9.3,8.5c0.5,0,0.7,0,1.1-0.1c6.3-1.1,9.8-8.8,10.4-15.5c0.8-8.6-0.6-17.6-4.1-25.5
		c-0.8-1.8-1.7-3.5-2.7-5.1c8.8-3.1,15.5-11.9,17.1-20.9c0.9-5.3,0.8-12.9,6.1-13.4c-0.3,3.7-0.6,7.6,0.7,11.1
		c1.2,3.6,4.4,6.7,8.1,6.7c1.8,0.1,3.4-0.7,4.9-1.6c7-4.7,7.4-14.7,7.9-23.1c0.5-8.3,3.6-18.6,12-20.1c0.2,5.1-2,10.2-2.7,15.3
		c-0.6,5.2,1.3,11.5,6.4,12.8c2.5,0.6,5.1-0.2,7.5-1.4c14.9-7.2,22.5-27,16.2-42.4c3.6-2.6,7.7-4.7,12-5.7
		c-3.2,5.1-6.4,10.7-6.7,16.7c-0.3,6,3.5,12.7,9.6,13.4c2.3,0.3,4.6-0.4,6.7-1.3c9.1-3.8,15.8-12.1,17.6-21.7
		c1-5.9,1.6-8.4,3.7-14.1s10.1-11.8,12.9-11.1c-3.8,4.2-7.4,8.8-8.4,14.4s1.7,12.1,7.1,13.7c3.1,0.9,6.6-0.1,9.4-1.6
		c8.6-4.8,12.3-14.8,16.8-23.6c4.4-8.7,11.7-17.9,21.4-17.7c-3.5,3.7-7.2,7.7-8.4,12.5c-1.3,4.9,1,11.2,5.9,12.5
		c2.3,0.7,4.9,0.1,7.2-0.8c6.9-2.3,13.2-7.2,17.3-13.3c5.5-8.1,9.1-19.7,18.8-21.3c-4.5,4.7-7.7,10.8-9.1,17.3
		c-0.7,3.4-0.7,7.6,2.2,9.8c3.1,2.4,11.5,0.5,15-1.6c7.5-4.5,9.9-8,16-14.2c5-5.2,14-15.9,14-15.9s6.9-3.1,11.5-3.8
		c-3.8,3-12.1,9.4-14.3,13.7c-2.1,4.3-4,9.1-0.6,12.6c0.3,0.4,0.5,0.5,0.8,0.8c5,4.1,13.1,1.9,18.5-2c7.1-4.9,13.1-11.7,16.9-19.5
		c0.9-1.7,1.6-3.5,2.1-5.4c8,4.8,19.1,4.2,27-0.3c4.6-2.7,10.4-7.7,14.2-3.9c-3.1,2.2-6.2,4.5-8.1,7.7c-2,3.2-2.3,7.7,0.1,10.5
		c1.1,1.4,2.7,2.1,4.4,2.7c8.1,2.3,16-3.8,22.7-8.8s16.6-9.2,23.1-3.7c-3.8,3.5-9.1,5-13.4,7.8c-4.4,2.9-7.9,8.4-5.7,13.1
		c1.2,2.3,3.5,3.8,5.9,4.8c15.1,6.8,35.1-0.1,42.9-14.8c4.3,1.1,8.5,2.9,12.1,5.6c-6,0.9-12.3,2-17.1,5.6s-7.5,10.9-4.1,16
		c1.3,1.9,3.3,3.3,5.3,4.3c8.7,4.5,19.5,4.3,27.9-0.5c5.2-3,7.4-4.2,13.1-6.2c5.7-2.1,15.5,0.1,16.8,2.7c-5.6-0.2-11.5,0-16.4,2.8
		s-8.2,9.1-5.9,14.2c1.4,3,4.3,5,7.2,6.2c9.2,3.5,19.3-0.1,28.9-2.3c9.5-2.2,21.2-2.6,27.3,5c-5.1-0.3-10.5-0.6-15,1.6
		s-7.9,7.9-5.8,12.6c1,2.2,3.1,3.8,5.2,5c6.2,3.8,14,5.5,21.3,4.7c9.8-1,20.9-5.7,28.4,0.7c-6.5-0.4-13.2,1.1-19.1,4.1
		c-3.1,1.6-6.2,4.4-6.1,8c0.1,4,7,9.1,10.9,10.5c8.3,2.8,12.5,2.4,21.2,3.2c7.2,0.5,21.2,0.5,21.2,0.5s6.8,3.3,10.3,6.4
		c-4.8-1-15-3.2-19.7-2.1c-4.7,1.2-9.5,2.8-10,7.6c-0.1,0.5-0.1,0.7-0.1,1.1c0,6.4,7,11.2,13.4,12.9c8.4,2.3,17.4,2.5,25.8,0.4
		c1.9-0.4,3.7-1,5.5-1.8c1.5,9.2,9.1,17.3,17.6,20.5c5.1,1.8,12.6,3,12.1,8.4c-3.6-0.9-7.4-1.9-11.1-1.3c-3.7,0.6-7.4,3.2-8,6.8
		c-0.4,1.7,0.1,3.5,0.7,5.1c3.4,7.7,13.2,9.8,21.4,11.8c8.1,1.9,17.7,6.8,17.7,15.3c-5.1-0.7-9.6-3.8-14.6-5.3s-11.5-0.7-13.7,4.1
		c-1,2.4-0.7,5.1,0.1,7.7c4.5,16,22.7,26.8,38.9,23.4c2,4,3.2,8.4,3.5,12.8c-4.5-4-9.4-8.1-15.3-9.5c-5.9-1.4-13.1,1.3-14.9,7.1
		c-0.7,2.2-0.4,4.6,0.1,6.8c2.1,9.6,9.2,17.7,18.3,21.1c5.6,2.1,8,3,13.2,6.1c5.3,3.1,9.8,12,8.7,14.7c-3.4-4.5-7.4-8.8-12.7-10.8
		s-12.3-0.4-14.7,4.6c-1.4,2.9-1.1,6.5-0.1,9.5c3.2,9.3,12.4,14.7,20.3,20.6c7.8,5.9,15.6,14.6,13.8,24.1c-3-4.1-6.3-8.4-10.9-10.5
		c-4.6-2.1-11.2-1-13.4,3.6c-1.1,2.2-0.9,4.8-0.5,7.2c1.1,7.2,4.8,14.2,10.1,19.4c7.1,6.8,17.8,12.3,17.7,22.2
		C891.6,443.8,886.2,439.6,880,437.1z M593.6,283.7l1.6-68.1c0.1-3.8,3.1-6.9,6.7-6.7c3.6,0.1,6.5,3.3,6.4,7l-1.6,68.1
		c-0.1,3.8-3.1,6.9-6.7,6.7C596.5,290.7,593.6,287.5,593.6,283.7z"/>
</g>
</svg>
